<svg width="543" height="442" viewBox="0 0 543 442" fill="none" xmlns="http://www.w3.org/2000/svg">
<path d="M269.483 105.8V115.173L260.841 129.233L250.471 135.259H235.491L221.087 129.903L196.313 114.504L170.387 103.791L153.102 101.783L123.143 109.147L102.401 126.555L88.574 145.971L82.2364 166.057L80.508 184.134L83.3887 208.907L94.9116 238.366L109.315 261.799L119.11 275.859L121.99 279.207L124.295 275.19L149.645 241.714L162.897 220.289L177.876 199.533C183.062 194.4 195.276 181.858 202.651 172.752C211.869 161.37 226.849 156.014 228.577 153.336C229.96 151.194 244.901 144.409 252.199 141.285L272.94 133.92C276.205 133.027 283.081 131.51 284.463 132.581C285.846 133.652 285.423 137.044 285.039 138.607L281.583 141.954L276.397 147.98L274.093 151.997C273.901 153.113 273.171 156.282 271.788 160.031C270.405 163.781 271.98 166.95 272.94 168.066L278.702 174.761C280.43 176.993 284.118 181.858 285.039 183.465C285.961 185.072 285.808 188.152 285.616 189.491V198.864C285.423 199.757 285.27 201.944 286.192 203.551C287.114 205.157 288.496 206.006 289.072 206.229L294.258 211.585L300.595 217.611C302.516 219.619 306.933 224.44 309.237 227.654C311.542 230.867 311.734 232.563 311.542 233.01L310.39 239.035L305.204 245.731C305.397 245.284 304.398 245.597 298.867 250.417C293.336 255.238 291.185 255.55 290.801 255.104C287.344 255.327 279.047 255.506 273.517 254.435C267.986 253.363 267.755 252.649 268.331 252.426C266.987 251.756 263.146 249.748 258.537 247.07C253.928 244.392 253.159 245.061 253.351 245.731C252.775 245.508 250.816 246.132 247.59 250.417C244.364 254.702 242.789 257.559 242.405 258.452L238.948 265.817L237.219 272.512V284.563V293.937L238.948 301.971V310.005L237.219 316.701L233.186 328.082L229.729 338.125L228.001 343.482V348.168V356.872V374.949C227.809 375.396 227.655 376.556 228.577 377.627C229.499 378.699 235.491 382.984 238.372 384.992L253.351 395.705L263.146 403.739L268.907 409.765L271.788 415.79V420.477V423.825C271.596 424.941 271.097 427.708 270.636 429.85C270.175 431.993 269.291 432.975 268.907 433.198C268.139 434.314 265.911 437.081 263.146 439.224C260.38 441.366 256.232 441.456 254.504 441.232H242.981L232.61 439.893L214.75 433.198L194.009 421.147L169.234 405.748L135.242 381.645L100.097 352.855L70.1374 322.726L53.4292 301.301L40.754 283.224L38.4494 279.207L36.721 276.529L34.9925 273.851L33.2641 271.173L32.1118 269.164L30.9595 267.156L29.8072 264.477L28.655 261.799L27.5027 259.121L26.3504 256.443L25.1981 253.765L24.0458 251.087L22.8935 248.409L21.7412 246.4L20.5889 244.392L20.0128 241.714L19.4366 239.035L18.8605 236.357L17.7082 233.679L16.5559 231.001L15.4036 228.323L14.2513 225.645L13.6752 221.628L12.5229 217.611L11.9468 213.594L10.7945 209.576L9.64217 205.559L8.48988 201.542L7.33759 197.525L6.1853 192.838L5.03301 188.152L3.88072 182.795L3.30458 178.778V176.1L2.72843 173.422L2.15229 170.744L1.57614 168.066L1 164.049V161.208V125.216V122.538L1.57614 119.86L2.15229 116.512L2.72843 113.165L3.30458 110.486L3.88072 107.808L4.45687 105.13L5.03301 102.452L5.60916 99.7741L6.76145 95.7569L7.91374 91.7398L9.06603 87.7226L10.2183 84.375L11.3706 81.0273L12.5229 77.6797L14.2513 74.3321L15.9798 70.9845L17.7082 67.6368L19.4366 64.2892L22.8935 58.933L26.3504 53.5768L28.655 49.5596L32.688 44.8729L37.8733 39.5167L41.9063 35.4996L46.5154 30.8129L51.1246 26.7957L56.3099 23.4481L62.0714 20.1005L65.5282 18.0919L68.9851 16.0833L73.5942 13.4052L78.2034 11.3966L83.9649 8.71852L89.7263 6.70995L94.9116 4.70137L99.5208 3.36232L104.13 2.69279L107.587 2.02326L111.62 1.35374H119.11H127.752L135.242 2.02326L141.003 3.36232L146.765 4.70137L151.374 6.04042L155.983 7.37947L160.016 8.71852L163.473 10.0576L171.539 13.4052L178.453 17.4224L189.399 24.1176L195.161 28.1348L205.531 35.4996L214.174 42.1948L223.392 49.5596L230.306 54.9158L236.643 60.272L242.405 65.6282L248.742 72.3235L252.775 77.0102L257.961 83.0359L261.417 87.0531L264.874 92.4093L267.755 99.1045L269.483 105.8Z" fill="#00BDE3"/>
<path d="M269.296 115.173C269.421 115.173 269.546 115.173 269.671 115.173C269.675 112.049 269.679 108.924 269.684 105.8L269.677 105.75C269.104 103.517 268.531 101.285 267.958 99.0522L267.947 99.0219C266.99 96.7888 266.033 94.5558 265.075 92.3228L265.058 92.2907C263.908 90.5038 262.758 88.7169 261.608 86.9301L261.589 86.9051C260.439 85.5646 259.288 84.2241 258.138 82.8836C256.412 80.8728 254.686 78.8621 252.96 76.8514C251.617 75.2875 250.275 73.7237 248.933 72.1598L248.925 72.151C246.815 69.9167 244.705 67.6824 242.595 65.4481L242.583 65.4363C240.665 63.6486 238.746 61.861 236.828 60.0734L236.818 60.0648C234.708 58.277 232.597 56.4892 230.487 54.7014L230.478 54.6938C228.175 52.9058 225.872 51.1178 223.57 49.3299C221.36 47.5599 219.146 45.7873 216.932 44.0147C216.076 43.329 215.219 42.6433 214.363 41.9577C211.481 39.72 208.603 37.4852 205.724 35.2504L205.714 35.2426C202.26 32.7841 198.805 30.3256 195.351 27.8672C193.429 26.5246 191.51 25.1836 189.591 23.8427L189.574 23.8317C185.928 21.5963 182.281 19.361 178.634 17.1258C176.324 15.7806 174.021 14.4393 171.717 13.0982L171.675 13.0772C168.987 11.9589 166.3 10.8405 163.612 9.72223C162.452 9.27162 161.3 8.82424 160.148 8.37687L160.131 8.3708C158.787 7.92325 157.444 7.47572 156.1 7.02819L156.086 7.02403C154.55 6.57633 153.014 6.12865 151.478 5.68097C149.942 5.2333 148.406 4.78564 146.87 4.33798L146.85 4.33278C144.93 3.8848 143.01 3.43684 141.09 2.9889C139.17 2.54095 137.25 2.09303 135.33 1.64512L135.276 1.63658C132.78 1.41137 130.283 1.1862 127.787 0.961051L127.752 0.959485C124.871 0.957209 121.99 0.954969 119.11 0.952766C116.613 0.950857 114.116 0.948976 111.62 0.947122L111.553 0.952612C110.209 1.17479 108.864 1.39697 107.52 1.61917L107.509 1.62111C106.356 1.84344 105.204 2.06578 104.052 2.28813L104.071 2.28489C102.534 2.50696 100.998 2.72904 99.461 2.95113L99.4048 2.96331C97.8681 3.40858 96.3314 3.85385 94.7947 4.29914L94.7603 4.31079C93.0314 4.97912 91.3025 5.64746 89.5736 6.31582L89.5872 6.31084C87.6662 6.97907 85.7453 7.64732 83.8244 8.31558L83.785 8.33156C81.8639 9.223 79.9428 10.1145 78.0218 11.0059L78.0313 11.0017C76.4945 11.6702 74.9577 12.3388 73.4209 13.0073L73.3762 13.0299C71.8393 13.9217 70.3023 14.8134 68.7654 15.7052C67.6127 16.374 66.46 17.0429 65.3073 17.7117C64.1546 18.3805 63.0019 19.0494 61.8493 19.7182C59.9281 20.833 58.007 21.9478 56.0859 23.0625L56.068 23.0735C54.339 24.1884 52.6099 25.3033 50.8809 26.4182L50.8294 26.457C49.2922 27.7952 47.7551 29.1334 46.218 30.4717L46.1927 30.4955C44.6555 32.0569 43.1183 33.6184 41.5811 35.1798C40.2394 36.5148 38.8944 37.8532 37.5494 39.1916C35.8142 40.9821 34.085 42.7667 32.3557 44.5512L32.3374 44.5713C30.9923 46.1329 29.6473 47.6945 28.3022 49.2561L28.2513 49.3281C27.4825 50.6668 26.7137 52.0055 25.9449 53.3442L25.9577 53.3233C24.8046 55.1082 23.6515 56.8931 22.4985 58.678C21.3454 60.463 20.1924 62.2479 19.0394 64.0328L19.0166 64.0723C18.44 65.1879 17.8634 66.3036 17.2868 67.4192C16.7102 68.5349 16.1337 69.6506 15.5571 70.7662C14.9805 71.8819 14.404 72.9975 13.8274 74.1132C13.2508 75.2289 12.6743 76.3445 12.0978 77.4602L12.0705 77.524C11.686 78.6397 11.3015 79.7555 10.917 80.8712C10.5325 81.987 10.1481 83.1027 9.76358 84.2184C9.37911 85.3342 8.99465 86.4499 8.61019 87.5657L8.60263 87.5897C8.2181 88.9286 7.83357 90.2675 7.44906 91.6065C7.06454 92.9454 6.68003 94.2843 6.29553 95.6233C5.91104 96.9622 5.52654 98.3011 5.14206 99.6401L5.13409 99.6719C4.94179 100.565 4.74949 101.457 4.55719 102.35C4.36489 103.242 4.1726 104.135 3.9803 105.028C3.78801 105.92 3.59573 106.813 3.40344 107.706C3.21116 108.598 3.01888 109.491 2.8266 110.384C2.63432 111.276 2.44205 112.169 2.24978 113.062L2.24593 113.082C2.0536 114.197 1.86128 115.313 1.66897 116.429C1.47665 117.545 1.28435 118.661 1.09204 119.777L1.09591 119.757C0.903662 120.649 0.711414 121.542 0.51917 122.435L0.508169 122.538C0.507973 123.431 0.50778 124.323 0.507591 125.216C0.505051 137.213 0.503149 149.21 0.501883 161.208C0.501784 162.155 0.501688 163.102 0.501596 164.049L0.506644 164.119C0.698562 165.458 0.890489 166.797 1.08242 168.137L1.08853 168.171C1.2805 169.063 1.47248 169.956 1.66446 170.849C1.85643 171.742 2.04842 172.634 2.2404 173.527C2.43239 174.42 2.62438 175.312 2.81638 176.205L2.80521 176.1C2.80515 176.993 2.8051 177.885 2.80505 178.778L2.81011 178.849C3.00209 180.188 3.19408 181.527 3.38607 182.866L3.39219 182.9C3.77621 184.686 4.16025 186.471 4.5443 188.257L4.54757 188.271C4.93163 189.833 5.3157 191.395 5.69978 192.958C5.98323 194.11 6.26668 195.263 6.55013 196.416C6.65077 196.826 6.75141 197.235 6.85205 197.644L6.85697 197.663C7.24107 199.002 7.62517 200.341 8.00927 201.68C8.39337 203.019 8.77747 204.358 9.16157 205.697C9.54567 207.036 9.92977 208.375 10.3139 209.714C10.698 211.053 11.0821 212.392 11.4662 213.731L11.4519 213.664C11.6439 215.004 11.836 216.343 12.028 217.682L12.0424 217.749C12.4265 219.088 12.8106 220.427 13.1947 221.766L13.1804 221.699C13.3724 223.038 13.5645 224.377 13.7565 225.716L13.7922 225.843C14.1763 226.735 14.5604 227.628 14.9445 228.521C15.3286 229.413 15.7127 230.306 16.0968 231.199C16.4809 232.091 16.865 232.984 17.2491 233.877C17.6332 234.77 18.0174 235.662 18.4015 236.555L18.372 236.462C18.564 237.355 18.7561 238.248 18.9481 239.141C19.1402 240.033 19.3323 240.926 19.5243 241.819C19.7164 242.711 19.9084 243.604 20.1005 244.497L20.1556 244.64C20.5397 245.31 20.9238 245.979 21.3079 246.649C21.692 247.318 22.0761 247.988 22.4602 248.657L22.4347 248.606C22.8188 249.499 23.2029 250.392 23.587 251.284C23.9711 252.177 24.3552 253.07 24.7393 253.962C25.1235 254.855 25.5076 255.748 25.8917 256.641C26.2758 257.533 26.6599 258.426 27.044 259.319C27.4282 260.211 27.8123 261.104 28.1964 261.997C28.5805 262.889 28.9646 263.782 29.3487 264.675C29.7329 265.567 30.117 266.46 30.5011 267.353L30.5266 267.404C30.9107 268.073 31.2949 268.743 31.679 269.412C32.0631 270.082 32.4472 270.752 32.8313 271.421L32.8449 271.443C33.4211 272.336 33.9972 273.229 34.5734 274.121C35.1496 275.014 35.7257 275.907 36.3019 276.799C36.8781 277.692 37.4542 278.585 38.0304 279.477L38.0169 279.455C38.7851 280.794 39.5533 282.133 40.3216 283.472L40.3458 283.51C44.571 289.536 48.7963 295.562 53.0216 301.587L53.0366 301.608C58.6063 308.749 64.176 315.89 69.7458 323.032L69.7852 323.076C79.7722 333.119 89.7593 343.161 99.7464 353.204L99.7836 353.237C111.499 362.833 123.215 372.429 134.93 382.025L134.958 382.045C146.289 390.079 157.621 398.112 168.952 406.145L168.977 406.162C177.235 411.294 185.494 416.426 193.752 421.559L193.765 421.566C200.679 425.582 207.593 429.599 214.507 433.615L214.58 433.65C220.534 435.881 226.488 438.112 232.442 440.343L232.549 440.37C236.006 440.816 239.463 441.262 242.919 441.708L242.981 441.712C246.822 441.711 250.663 441.711 254.504 441.71L254.443 441.706C257.554 441.993 260.824 441.542 263.438 439.601C265.68 437.838 267.625 435.787 269.299 433.468L269.146 433.609C270.459 432.573 270.775 431.249 271.1 429.95C271.529 427.939 271.903 425.926 272.256 423.905L272.263 423.825C272.262 422.709 272.262 421.593 272.262 420.477C272.262 418.915 272.262 417.353 272.261 415.79L272.215 415.586C271.255 413.578 270.294 411.569 269.334 409.561L269.249 409.438C267.328 407.43 265.407 405.421 263.487 403.413L263.445 403.374C260.18 400.697 256.914 398.019 253.649 395.342L253.625 395.323C248.631 391.752 243.637 388.182 238.643 384.612C235.342 382.262 231.829 379.915 228.93 377.324C228.383 376.719 228.174 375.796 228.428 375.133L228.466 374.949C228.465 368.924 228.464 362.898 228.463 356.872C228.463 353.971 228.462 351.07 228.462 348.168C228.461 346.606 228.461 345.044 228.461 343.482L228.439 343.623C229.014 341.837 229.59 340.052 230.166 338.266C231.315 334.927 232.467 331.579 233.619 328.231C234.961 324.441 236.305 320.647 237.648 316.853L237.66 316.814C238.236 314.582 238.811 312.351 239.387 310.119L239.402 310.005C239.401 307.327 239.401 304.649 239.4 301.971L239.39 301.876C238.814 299.198 238.237 296.52 237.66 293.842L237.67 293.937C237.67 290.812 237.669 287.688 237.669 284.563C237.668 280.546 237.667 276.529 237.666 272.512L237.652 272.624C238.228 270.392 238.804 268.16 239.379 265.928L239.351 266.006C240.503 263.551 241.655 261.096 242.807 258.641L242.813 258.627C244.17 255.86 246.056 253.221 247.943 250.684C249.395 248.797 251.405 246.352 253.192 246.142L254.02 246.463L253.775 245.609C253.757 245.553 253.775 245.535 253.758 245.573C253.735 245.612 253.716 245.601 253.776 245.587C253.891 245.558 254.119 245.576 254.334 245.622C254.772 245.715 255.234 245.892 255.677 246.082C256.575 246.472 257.447 246.947 258.316 247.45C261.545 249.32 264.799 251.126 268.136 252.818L268.173 252.018C268.08 252.057 267.976 252.1 267.854 252.222C267.725 252.326 267.628 252.654 267.71 252.836C267.856 253.183 268.013 253.232 268.144 253.335C268.411 253.508 268.661 253.612 268.914 253.712C269.414 253.905 269.913 254.051 270.416 254.187C271.424 254.456 272.417 254.665 273.434 254.863C279.209 255.873 285.033 255.827 290.829 255.536L290.473 255.386C290.84 255.747 291.157 255.678 291.396 255.677C291.645 255.657 291.865 255.603 292.076 255.538C292.501 255.406 292.879 255.234 293.252 255.045C293.99 254.667 294.685 254.22 295.348 253.759C296.687 252.823 297.929 251.804 299.15 250.742C300.181 249.844 301.2 248.971 302.252 248.114C302.777 247.687 303.306 247.266 303.84 246.871C304.109 246.671 304.379 246.478 304.653 246.301C304.788 246.214 304.924 246.132 305.051 246.068C305.111 246.037 305.183 246.01 305.188 246.01C305.187 246.01 305.18 246.014 305.142 246.013C305.11 246.01 304.978 246.006 304.867 245.858C304.719 245.538 304.834 245.571 304.811 245.561L305.543 245.993C307.271 243.761 308.999 241.529 310.727 239.297L310.809 239.116C311.193 237.107 311.576 235.098 311.96 233.09L311.933 233.178C312.111 230.582 310.662 229.116 309.582 227.406C306.928 223.811 303.937 220.546 300.9 217.32L300.886 217.305C298.773 215.297 296.66 213.289 294.547 211.281L294.559 211.293C292.83 209.508 291.101 207.723 289.372 205.938L289.223 205.839C288.151 205.366 287.168 204.414 286.553 203.343C285.844 202.076 285.755 200.409 286.022 198.951L286.031 198.864C286.03 195.739 286.03 192.615 286.029 189.491L286.025 189.549C286.243 187.467 286.406 185.328 285.397 183.26C283.425 180.166 281.21 177.374 279.025 174.51L279.012 174.494C277.091 172.263 275.17 170.032 273.249 167.8C271.608 165.733 271.204 162.686 272.168 160.172C273.131 157.529 273.952 154.856 274.49 152.065L274.442 152.198C275.21 150.858 275.978 149.519 276.746 148.18L276.702 148.242C278.43 146.233 280.158 144.224 281.885 142.215L281.861 142.241C283.013 141.125 284.165 140.009 285.317 138.893L285.399 138.813L285.426 138.702C285.778 136.636 286.492 134.26 284.706 132.267C280.363 131.103 276.689 132.712 272.837 133.54L272.809 133.549C265.896 136.006 258.982 138.462 252.069 140.919L252.047 140.928C243.965 144.63 235.615 147.548 228.258 153.13C219.836 159.128 209.184 163.806 202.362 172.519C194.654 181.888 186.196 190.68 177.623 199.277L177.584 199.323C172.593 206.243 167.602 213.163 162.611 220.082L162.597 220.103C158.182 227.246 153.767 234.389 149.352 241.532L149.371 241.506C140.924 252.667 132.478 263.829 124.031 274.99L124.008 275.025C123.24 276.365 122.473 277.704 121.705 279.043L122.24 278.992C121.279 277.877 120.319 276.761 119.358 275.646L119.379 275.672C116.112 270.986 112.846 266.301 109.579 261.615L109.59 261.631C104.786 253.821 99.9818 246.012 95.1778 238.202L95.2026 238.252C91.3582 228.434 87.5137 218.615 83.6692 208.797L83.6879 208.872C82.7247 200.615 81.7614 192.358 80.7981 184.101L80.7988 184.162C81.3727 178.136 81.9466 172.11 82.5205 166.084L82.5085 166.143C84.6185 159.447 86.7285 152.751 88.8385 146.055L88.7999 146.132C93.4066 139.658 98.0133 133.185 102.62 126.711L102.574 126.761C109.485 120.955 116.397 115.15 123.308 109.345L123.204 109.397C133.19 106.939 143.175 104.48 153.161 102.021L153.074 102.026C158.836 102.693 164.597 103.36 170.359 104.027L170.296 104.011C177.705 107.069 185.114 110.127 192.523 113.184C193.758 113.694 194.992 114.203 196.227 114.713L196.194 114.696C204.454 119.825 212.714 124.955 220.975 130.084L221.013 130.103C225.815 131.886 230.617 133.67 235.419 135.453L235.491 135.466C240.484 135.464 245.477 135.461 250.471 135.459L250.525 135.459L250.571 135.432C254.027 133.422 257.483 131.412 260.939 129.402L261.007 129.335C263.886 124.647 266.765 119.959 269.643 115.271C269.537 115.206 269.43 115.14 269.324 115.075C266.441 119.76 263.558 124.446 260.675 129.131L260.743 129.065C257.286 131.072 253.828 133.079 250.37 135.086L250.471 135.059C245.477 135.056 240.484 135.054 235.491 135.052L235.563 135.065C230.763 133.278 225.962 131.49 221.162 129.703L221.2 129.721C212.944 124.585 204.688 119.448 196.432 114.312L196.399 114.295C195.165 113.784 193.931 113.274 192.697 112.763C185.291 109.699 177.884 106.635 170.477 103.571L170.414 103.555C164.653 102.883 158.892 102.211 153.131 101.539L153.044 101.545C143.056 103.996 133.069 106.446 123.081 108.897L122.977 108.95C116.061 114.75 109.145 120.55 102.229 126.35L102.183 126.4C97.5714 132.87 92.9597 139.34 88.3481 145.81L88.3095 145.888C86.1944 152.582 84.0794 159.277 81.9643 165.971L81.9524 166.03C81.374 172.056 80.7956 178.081 80.2172 184.107L80.2178 184.168C81.175 192.426 82.1323 200.684 83.0895 208.942L83.1082 209.017C86.9456 218.838 90.7831 228.659 94.6206 238.48L94.6454 238.53C99.4439 246.342 104.242 254.155 109.041 261.968L109.051 261.983C112.314 266.671 115.577 271.359 118.841 276.047L118.861 276.073C119.821 277.189 120.781 278.306 121.741 279.422L122.045 279.775L122.276 279.371C123.045 278.032 123.813 276.693 124.582 275.355L124.559 275.39C133.013 264.234 141.466 253.078 149.92 241.922L149.938 241.895C154.358 234.755 158.777 227.614 163.196 220.474L163.182 220.495C168.178 213.578 173.173 206.661 178.169 199.744L178.13 199.79C186.726 191.178 195.187 182.397 202.939 172.986C209.721 164.35 219.889 160.071 228.897 153.542C235.676 148.505 244.368 145.251 252.352 141.641L252.329 141.65C259.243 139.197 266.158 136.744 273.072 134.291L273.044 134.3C276.707 133.427 280.973 132.081 284.22 132.895C285.425 134.111 285.053 136.623 284.653 138.511L284.762 138.32C283.61 139.436 282.457 140.552 281.305 141.667L281.28 141.694C279.551 143.702 277.822 145.71 276.093 147.718L276.049 147.78C275.28 149.119 274.512 150.458 273.743 151.797L273.696 151.929C273.176 154.618 272.357 157.294 271.408 159.891C270.363 162.659 270.749 165.948 272.632 168.331C274.552 170.563 276.472 172.796 278.392 175.028L278.378 175.012C280.544 177.851 282.798 180.71 284.682 183.67C285.508 185.311 285.43 187.498 285.206 189.432L285.202 189.491C285.201 192.615 285.201 195.739 285.2 198.864L285.209 198.777C284.913 200.45 284.979 202.194 285.83 203.758C286.55 204.983 287.557 206.007 288.922 206.618L288.772 206.519C290.5 208.305 292.228 210.091 293.956 211.877L293.969 211.889C296.081 213.898 298.193 215.907 300.305 217.916L300.291 217.902C303.302 221.102 306.299 224.384 308.893 227.901C309.968 229.425 311.231 231.416 311.151 232.842L311.124 232.93C310.739 234.938 310.355 236.947 309.97 238.955L310.052 238.774C308.323 241.005 306.594 243.237 304.865 245.468L305.598 245.9C305.616 245.857 305.632 245.819 305.646 245.743C305.653 245.68 305.688 245.546 305.565 245.359C305.428 245.176 305.252 245.16 305.177 245.156C305.1 245.153 305.046 245.163 305.006 245.172C304.846 245.21 304.762 245.256 304.669 245.3C304.489 245.391 304.34 245.483 304.189 245.579C303.888 245.774 303.608 245.975 303.329 246.181C302.778 246.589 302.241 247.015 301.71 247.447C300.645 248.314 299.62 249.191 298.584 250.093C297.379 251.141 296.154 252.144 294.855 253.051C294.213 253.496 293.543 253.926 292.859 254.275C292.516 254.45 292.171 254.604 291.823 254.712C291.651 254.764 291.479 254.804 291.33 254.815C291.187 254.84 291.041 254.763 291.129 254.822L290.988 254.659L290.773 254.672C285.051 254.96 279.215 254.994 273.599 254.006C272.595 253.811 271.617 253.603 270.643 253.343C270.158 253.213 269.678 253.071 269.232 252.897C269.01 252.811 268.787 252.712 268.627 252.606C268.55 252.567 268.487 252.46 268.541 252.564C268.578 252.626 268.521 252.812 268.484 252.828C268.451 252.859 268.464 252.842 268.489 252.834L269.413 252.476L268.526 252.034C265.225 250.359 261.971 248.552 258.758 246.69C257.87 246.176 256.979 245.689 256.026 245.274C255.552 245.071 255.061 244.878 254.514 244.76C254.234 244.707 253.953 244.65 253.573 244.729C253.389 244.771 253.128 244.886 252.983 245.152C252.844 245.415 252.876 245.668 252.928 245.852L253.511 245.32C252.432 245.107 251.933 245.607 251.336 245.938C250.771 246.313 250.264 246.75 249.793 247.202C248.848 248.114 248.016 249.12 247.237 250.151C245.321 252.732 243.452 255.314 241.997 258.276L242.003 258.263C240.85 260.718 239.697 263.172 238.544 265.627L238.516 265.705C237.94 267.937 237.363 270.168 236.787 272.4L236.772 272.512C236.772 276.529 236.771 280.546 236.77 284.563C236.77 287.688 236.769 290.812 236.768 293.937L236.778 294.031C237.354 296.71 237.93 299.388 238.505 302.066L238.495 301.971C238.495 304.649 238.494 307.327 238.494 310.005L238.508 309.892C237.932 312.123 237.355 314.355 236.779 316.587L236.79 316.549C235.445 320.342 234.1 324.136 232.756 327.93C231.601 331.281 230.448 334.629 229.296 337.976C228.716 339.77 228.14 341.555 227.564 343.34L227.541 343.482C227.541 345.044 227.541 346.606 227.541 348.168C227.54 351.07 227.54 353.971 227.539 356.872C227.538 362.898 227.537 368.924 227.536 374.949L227.574 374.766C227.143 375.915 227.509 377.107 228.225 377.931C231.405 380.792 234.759 382.981 238.105 385.375C243.093 388.944 248.085 392.515 253.078 396.087L253.054 396.068C256.318 398.746 259.582 401.425 262.847 404.103L262.805 404.065C264.725 406.074 266.646 408.082 268.566 410.091L268.481 409.968C269.441 411.977 270.401 413.986 271.361 415.995L271.315 415.79C271.314 417.353 271.314 418.915 271.314 420.477C271.314 421.593 271.314 422.709 271.314 423.825L271.32 423.744C270.97 425.75 270.595 427.763 270.171 429.75C269.927 430.909 269.406 432.225 268.668 432.787L268.515 432.928C266.929 435.128 264.998 437.166 262.854 438.847C260.578 440.563 257.416 441.034 254.565 440.758L254.504 440.754C250.663 440.754 246.822 440.754 242.981 440.753L243.042 440.757C239.585 440.31 236.129 439.864 232.672 439.417L232.779 439.443C226.826 437.211 220.872 434.979 214.919 432.746L214.992 432.781C208.079 428.763 201.166 424.745 194.252 420.727L194.265 420.735C186.007 415.601 177.749 410.467 169.492 405.333L169.516 405.35C158.186 397.314 146.856 389.279 135.526 381.244L135.553 381.265C123.839 371.667 112.125 362.07 100.41 352.473L100.447 352.506C90.4615 342.463 80.4756 332.419 70.4895 322.376L70.529 322.421C64.9599 315.279 59.3908 308.137 53.8217 300.995L53.8368 301.016C49.6119 294.99 45.3871 288.964 41.1622 282.938L41.1864 282.976C40.4183 281.637 39.6501 280.298 38.882 278.959L38.8684 278.937C38.2923 278.044 37.7162 277.151 37.1401 276.258C36.5639 275.366 35.9878 274.473 35.4117 273.58C34.8356 272.688 34.2595 271.795 33.6833 270.902L33.6969 270.924C33.3128 270.255 32.9287 269.585 32.5447 268.916C32.1606 268.246 31.7765 267.577 31.3924 266.907L31.418 266.958C31.0339 266.066 30.6498 265.173 30.2657 264.28C29.8817 263.388 29.4976 262.495 29.1135 261.602C28.7294 260.709 28.3454 259.817 27.9613 258.924C27.5772 258.031 27.1931 257.139 26.8091 256.246C26.425 255.353 26.0409 254.46 25.6568 253.568C25.2727 252.675 24.8887 251.782 24.5046 250.89C24.1205 249.997 23.7364 249.104 23.3523 248.211L23.3268 248.16C22.9427 247.491 22.5586 246.821 22.1745 246.152C21.7904 245.482 21.4064 244.813 21.0223 244.143L21.0773 244.287C20.8853 243.394 20.6933 242.501 20.5012 241.609C20.3092 240.716 20.1172 239.823 19.9251 238.93C19.7331 238.038 19.5411 237.145 19.349 236.252L19.3195 236.16C18.9354 235.267 18.5513 234.374 18.1673 233.482C17.7832 232.589 17.3991 231.696 17.015 230.804C16.6309 229.911 16.2468 229.018 15.8627 228.126C15.4787 227.233 15.0946 226.34 14.7105 225.447L14.7461 225.574C14.5541 224.235 14.362 222.896 14.17 221.557L14.1557 221.49C13.7716 220.151 13.3875 218.812 13.0034 217.473L13.0178 217.54C12.8257 216.201 12.6337 214.862 12.4416 213.523L12.4273 213.456C12.0432 212.117 11.6591 210.778 11.2751 209.439C10.891 208.099 10.5069 206.76 10.1228 205.421C9.73868 204.082 9.35459 202.743 8.9705 201.404C8.5864 200.065 8.20231 198.726 7.81821 197.387L7.82313 197.406C7.72249 196.996 7.62185 196.587 7.52121 196.178C7.23776 195.025 6.95429 193.872 6.67083 192.719C6.28671 191.157 5.90259 189.594 5.51845 188.032L5.52173 188.046C5.13759 186.261 4.75343 184.476 4.36926 182.69L4.37538 182.724C4.18328 181.385 3.99116 180.046 3.79905 178.707L3.8041 178.778C3.80406 177.885 3.80401 176.993 3.80395 176.1L3.79278 175.995C3.60068 175.102 3.40857 174.21 3.21646 173.317C3.02435 172.424 2.83224 171.532 2.64012 170.639C2.44801 169.746 2.25589 168.854 2.06376 167.961L2.06987 167.995C1.8777 166.656 1.68553 165.317 1.49336 163.978L1.4984 164.049C1.49831 163.102 1.49822 162.155 1.49812 161.208C1.49685 149.21 1.49495 137.213 1.49241 125.216C1.49222 124.323 1.49203 123.431 1.49183 122.538L1.48083 122.641C1.67268 121.749 1.86453 120.856 2.05638 119.963L2.06025 119.943C2.25204 118.827 2.44383 117.711 2.63561 116.595C2.82739 115.479 3.01917 114.364 3.21094 113.248L3.20709 113.268C3.39891 112.375 3.59074 111.482 3.78256 110.589C3.97438 109.697 4.16619 108.804 4.35801 107.911C4.54982 107.018 4.74163 106.126 4.93343 105.233C5.12524 104.34 5.31704 103.447 5.50884 102.555C5.70064 101.662 5.89243 100.769 6.08422 99.8763L6.07626 99.9081C6.45997 98.5689 6.84367 97.2297 7.22736 95.8906C7.61106 94.5514 7.99474 93.2122 8.37842 91.8731C8.7621 90.5339 9.14577 89.1947 9.52943 87.8555L9.52187 87.8795C9.9056 86.7635 10.2893 85.6475 10.673 84.5315C11.0568 83.4155 11.4405 82.2995 11.8242 81.1835C12.2079 80.0675 12.5916 78.9515 12.9753 77.8354L12.948 77.8992C13.5238 76.7831 14.0995 75.6671 14.6753 74.551C15.251 73.4349 15.8267 72.3188 16.4024 71.2027C16.9782 70.0866 17.5539 68.9705 18.1296 67.8544C18.7053 66.7383 19.281 65.6222 19.8567 64.5061L19.8338 64.5456C20.9854 62.7597 22.137 60.9738 23.2885 59.1879C24.4401 57.402 25.5916 55.6161 26.7431 53.8302L26.7558 53.8094C27.5234 52.47 28.291 51.1306 29.0586 49.7912L29.0077 49.8631C30.3513 48.3003 31.6949 46.7375 33.0385 45.1746L33.0203 45.1946C34.7478 43.4084 36.4754 41.6222 38.203 39.8359C39.5408 38.5021 40.8845 37.1624 42.2281 35.8227C43.767 34.2563 45.3026 32.6933 46.8382 31.1303L46.8128 31.1541C48.3485 29.8142 49.8842 28.4744 51.4198 27.1345L51.3683 27.1732C53.0961 26.0564 54.824 24.9396 56.5518 23.8227L56.5339 23.8337C58.4538 22.7167 60.3736 21.5997 62.2934 20.4827C63.4453 19.8125 64.5972 19.1423 65.7491 18.4721C66.901 17.8019 68.0529 17.1317 69.2048 16.4614C70.7406 15.5678 72.2765 14.6741 73.8123 13.7805L73.7676 13.8031C75.3036 13.1326 76.8396 12.4621 78.3755 11.7916L78.385 11.7873C80.3049 10.8934 82.2248 9.99946 84.1447 9.10549L84.1053 9.12147C86.0254 8.45068 87.9454 7.77987 89.8654 7.10905L89.879 7.10407C91.607 6.43338 93.3349 5.76267 95.0629 5.09195L95.0285 5.10359C96.5645 4.65618 98.1006 4.20876 99.6367 3.76132L99.5805 3.7735C101.117 3.54924 102.653 3.32497 104.189 3.10069L104.208 3.09745C105.36 2.87344 106.513 2.64943 107.665 2.42542L107.654 2.42736C108.998 2.2032 110.342 1.97904 111.686 1.75486L111.62 1.76035C114.116 1.7585 116.613 1.75662 119.11 1.75471C121.99 1.7525 124.871 1.75026 127.752 1.74799L127.717 1.74642C130.214 1.96763 132.71 2.1888 135.207 2.40995L135.154 2.40141C137.075 2.8462 138.996 3.29097 140.916 3.73573C142.837 4.18049 144.758 4.62523 146.679 5.06995L146.659 5.06475C148.196 5.5098 149.733 5.95484 151.269 6.39987C152.806 6.84489 154.343 7.28991 155.88 7.73491L155.866 7.73075C157.211 8.17593 158.556 8.62109 159.901 9.06625L159.884 9.06018C161.036 9.50551 162.189 9.95083 163.342 10.3961C166.023 11.5064 168.713 12.6198 171.403 13.7332L171.36 13.7123C173.666 15.0492 175.972 16.3861 178.278 17.7229C181.922 19.9472 185.573 22.1754 189.224 24.4036L189.208 24.3926C191.129 25.7298 193.051 27.0669 194.973 28.404C198.43 30.8538 201.889 33.3052 205.349 35.7565L205.338 35.7487C208.221 37.9775 211.105 40.2061 213.988 42.4348C214.842 43.1158 215.7 43.7997 216.558 44.4835C218.775 46.2512 220.993 48.019 223.21 49.7867C225.52 51.5722 227.827 53.355 230.134 55.1378L230.124 55.1303C232.239 56.9133 234.354 58.6963 236.468 60.4792L236.459 60.4707C238.381 62.2539 240.304 64.037 242.226 65.8202L242.214 65.8084C244.33 68.0376 246.445 70.2668 248.56 72.496L248.552 72.4872C249.898 74.0478 251.245 75.6084 252.591 77.169C254.322 79.1754 256.053 81.1818 257.784 83.1883C258.938 84.5259 260.092 85.8635 261.245 87.2011L261.227 87.1761C262.381 88.96 263.536 90.744 264.691 92.5279L264.673 92.4957C265.637 94.7262 266.6 96.9567 267.563 99.1872L267.552 99.1568C268.132 101.388 268.711 103.619 269.29 105.85L269.283 105.8C269.288 108.924 269.292 112.049 269.296 115.173ZM269.671 115.173H269.296L269.324 115.075L269.643 115.271L269.671 115.226L269.671 115.173Z" fill="#00090B"/>
<path d="M274.669 96.4264L272.364 108.478L275.782 121.715L275.821 122.538L283.887 131.242L290.801 135.259L301.748 136.598L312.694 133.92L329.403 125.216L354.753 109.817L368.004 104.461L384.136 101.783L396.235 102.452L406.03 104.461L418.705 109.817L431.38 118.521L441.175 127.894L449.241 138.607L455.578 149.989L458.459 158.692L460.764 170.377V179.813V191.499L459.611 199.533L457.883 209.576L454.426 220.958L449.241 233.679L441.751 248.409L434.261 260.46L425.043 273.851L413.52 286.572L404.878 295.945L399.116 302.64L396.235 304.649L394.507 303.31L391.626 293.267C389.783 286.84 385.481 280.323 383.56 277.868L376.07 267.825L369.157 260.46L365.7 253.096L350.72 231.001L343.23 221.628L339.773 217.611L338.621 218.28V237.027L336.892 237.696L328.826 233.01L322.489 229.662L316.727 226.984V228.323V229.662L318.456 233.01L320.76 238.366L321.337 241.714V248.409L320.184 249.748L317.88 250.417C316.343 250.864 312.118 252.024 307.509 253.096C302.9 254.167 299.059 257.559 297.715 259.121L291.377 267.825L286.768 279.207L285.039 289.25V296.615L284.463 299.293L282.735 301.301L275.821 310.005V317.37L279.854 324.735L291.377 335.447L304.628 341.473L311.542 342.812L319.608 340.803L325.37 338.125V339.464V342.812V347.499L324.793 357.542L322.489 365.576L319.032 372.271L314.999 376.288L308.661 381.645L299.443 387.67L282.735 400.391L274.669 409.095L271.212 415.79V421.816V427.172L273.517 435.207L282.735 439.893L294.834 441.232L308.085 439.893L321.337 435.876L348.991 420.477L378.375 401.73L407.758 380.975L441.175 354.194L462.492 333.439L481.505 312.014L496.485 291.259L512.617 263.808L524.716 238.366L533.358 208.907L539.695 179.448L542 151.328L540.848 119.19L535.662 94.4179L527.596 72.3235L517.802 52.9072L502.246 34.83L484.386 20.77L464.22 9.38805L442.327 2.69279L423.89 0.684211L405.454 1.35374L389.322 5.37089L376.07 10.7271L356.481 21.4395L339.197 32.8215L321.913 46.8815L300.019 65.6282L282.159 85.0445L274.669 96.4264Z" fill="#003366"/>
<path d="M275.821 121.868L275.782 121.715M275.782 121.715L272.364 108.478L274.669 96.4264L282.159 85.0445L300.019 65.6282L321.913 46.8815L339.197 32.8215L356.481 21.4395L376.07 10.7271L389.322 5.37089L405.454 1.35374L423.89 0.684211L442.327 2.69279L464.22 9.38805L484.386 20.77L502.246 34.83L517.802 52.9072L527.596 72.3235L535.662 94.4179L540.848 119.19L542 151.328L539.695 179.448L533.358 208.907L524.716 238.366L512.617 263.808L496.485 291.259L481.505 312.014L462.492 333.439L441.175 354.194L407.758 380.975L378.375 401.73L348.991 420.477L321.337 435.876L308.085 439.893L294.834 441.232L282.735 439.893L273.517 435.207L271.212 427.172V421.816V415.79L274.669 409.095L282.735 400.391L299.443 387.67L308.661 381.645L314.999 376.288L319.032 372.271L322.489 365.576L324.793 357.542L325.37 347.499V342.812V339.464V338.125L319.608 340.803L311.542 342.812L304.628 341.473L291.377 335.447L279.854 324.735L275.821 317.37V310.005L282.735 301.301L284.463 299.293L285.039 296.615V289.25L286.768 279.207L291.377 267.825L297.715 259.121C299.059 257.559 302.9 254.167 307.509 253.096C312.118 252.024 316.343 250.864 317.88 250.417L320.184 249.748L321.337 248.409V241.714L320.76 238.366L318.456 233.01L316.727 229.662V228.323V226.984L322.489 229.662L328.826 233.01L336.892 237.696L338.621 237.027V218.28L339.773 217.611L343.23 221.628L350.72 231.001L365.7 253.096L369.157 260.46L376.07 267.825L383.56 277.868C385.481 280.323 389.783 286.84 391.626 293.267C393.47 299.695 394.315 302.64 394.507 303.31L396.235 304.649L399.116 302.64L404.878 295.945L413.52 286.572L425.043 273.851L434.261 260.46L441.751 248.409L449.241 233.679L454.426 220.958L457.883 209.576L459.611 199.533L460.764 191.499V179.813V170.377L458.459 158.692L455.578 149.989L449.241 138.607L441.175 127.894L431.38 118.521L418.705 109.817L406.03 104.461L396.235 102.452L384.136 101.783L368.004 104.461L354.753 109.817L329.403 125.216L312.694 133.92L301.748 136.598L290.801 135.259L283.887 131.242L275.821 122.538L275.782 121.715Z" stroke="black"/>
</svg>
